<?xml version="1.0" encoding="utf-8"?>
<!-- Generator: Adobe Illustrator 27.2.0, SVG Export Plug-In . SVG Version: 6.00 Build 0)  -->
<svg version="1.1" id="Capa_1" xmlns="http://www.w3.org/2000/svg" xmlns:xlink="http://www.w3.org/1999/xlink" x="0px" y="0px"
	 viewBox="0 0 1000 1000" style="enable-background:new 0 0 1000 1000;" xml:space="preserve">
<style type="text/css">
	.st0{fill:none;stroke:#DDDBDC;stroke-width:4;stroke-miterlimit:10;}
	.st1{fill:#DDDBDC;}
	.st2{fill:none;stroke:#1D1D1B;stroke-width:0.35;stroke-linecap:round;stroke-linejoin:round;}
	.st3{fill:#F4E6D2;stroke:#CC1719;stroke-miterlimit:10;}
	.st4{fill:#CC1719;}
	.st5{fill:none;stroke:#1D1E1C;stroke-miterlimit:10;}
	.st6{fill:#1D1E1C;}
	.st7{fill:#1D1D1B;}
	.st8{font-family:'BarlowSemiCondensed-Medium';}
	.st9{font-size:21.0973px;}
	.st10{fill:none;}
	.st11{fill:#1E1E1C;}
	.st12{font-family:'BarlowSemiCondensed-MediumItalic';}
	.st13{font-size:26.3716px;}
	.st14{font-family:'BarlowSemiCondensed-LightItalic';}
	.st15{font-family:'BarlowSemiCondensed-Light';}
</style>
<g>
	<g>
		<text transform="matrix(1 0 0 1 465.8547 688.4626)" class="st7 st8 st9">1987</text>
	</g>
	<g>
		<text transform="matrix(1 0 0 1 465.2224 742.9641)" class="st7 st8 st9">1995</text>
	</g>
	<g>
		<rect x="530.6" y="636.8" class="st10" width="283.3" height="64.9"/>
		<text transform="matrix(1 0 0 1 530.5559 659.2002)"><tspan x="0" y="0" class="st11 st12 st13">Panamericanos</tspan><tspan x="0" y="31.6" class="st11 st14 st13">Indianápolis, Estados Unidos</tspan></text>
	</g>
	<g>
		<rect x="530.6" y="721.6" class="st10" width="283.3" height="64.9"/>
		<text transform="matrix(1 0 0 1 530.5579 743.9854)"><tspan x="0" y="0" class="st11 st12 st13">Panamericanos</tspan><tspan x="0" y="31.6" class="st11 st14 st13">Mar delPlata, Argentina</tspan></text>
	</g>
	<g>
		<rect x="186.2" y="636.8" class="st10" width="208.5" height="74.1"/>
		<text transform="matrix(1 0 0 1 186.1877 659.2002)"><tspan x="0" y="0" class="st11 st14 st13">Se suma la categoria </tspan><tspan x="0" y="31.6" class="st11 st14 st13">femenina en ruta</tspan></text>
	</g>
	<g>
		<rect x="186.2" y="721.6" class="st10" width="213.9" height="64.9"/>
		<text transform="matrix(1 0 0 1 186.1887 743.9893)"><tspan x="0" y="0" class="st11 st14 st13">Se incluye la mujer en </tspan><tspan x="0" y="31.6" class="st11 st14 st13">carrera contrarreloj</tspan></text>
	</g>
	<g>
		<g>
			<line class="st0" x1="512.1" y1="84.1" x2="512.1" y2="923.8"/>
			<g>
				<polygon class="st1" points="515.8,923.3 508.5,923.3 512.1,926.9 				"/>
			</g>
		</g>
	</g>
	<g>
		<text transform="matrix(1 0 0 1 530.5568 93.634)"><tspan x="0" y="0" class="st11 st12 st13">JJ.OO.</tspan><tspan x="0" y="31.6" class="st11 st14 st13">Atenas, Grecia</tspan></text>
	</g>
	<g>
		<text transform="matrix(1 0 0 1 534.1426 444.7344)"><tspan x="0" y="0" class="st11 st12 st13">Panamericanos</tspan><tspan x="0" y="31.6" class="st11 st14 st13">Buenos Aires, Argentina</tspan></text>
	</g>
	<g>
		<text transform="matrix(1 0 0 1 464.99 93.6343)" class="st7 st8 st9">1896</text>
	</g>
	<text transform="matrix(1 0 0 1 466.0442 279.8145)" class="st7 st15 st9">1925</text>
	<g>
		<text transform="matrix(1 0 0 1 468.9661 444.7344)" class="st7 st8 st9">1951</text>
	</g>
	<g>
		<text transform="matrix(1 0 0 1 460.2432 924.3726)" class="st7 st8 st9">2023</text>
	</g>
	<line class="st2" x1="520.1" y1="109.6" x2="504.2" y2="109.6"/>
	<line class="st2" x1="520.1" y1="273.1" x2="504.2" y2="273.1"/>
	<line class="st2" x1="520.1" y1="436.5" x2="504.2" y2="436.5"/>
	<line class="st2" x1="517.5" y1="681.7" x2="507.6" y2="681.7"/>
	<line class="st2" x1="517.5" y1="736.2" x2="507.6" y2="736.2"/>
	<ellipse class="st3" cx="512.1" cy="436.8" rx="7.3" ry="7.3"/>
	<ellipse class="st4" cx="512.1" cy="84.1" rx="7.3" ry="7.3"/>
	<g>
		<g>
			<line class="st5" x1="394.7" y1="681.7" x2="458.1" y2="681.7"/>
			<g>
				<circle class="st6" cx="458.1" cy="681.7" r="1.5"/>
			</g>
		</g>
	</g>
	<g>
		<g>
			<line class="st5" x1="411.2" y1="736.2" x2="458.1" y2="736.2"/>
			<g>
				<circle class="st6" cx="458.1" cy="736.2" r="1.5"/>
			</g>
		</g>
	</g>
	<ellipse class="st4" cx="512.1" cy="681.7" rx="7.3" ry="7.3"/>
	<ellipse class="st4" cx="512.1" cy="736.2" rx="7.3" ry="7.3"/>
</g>
</svg>
