<?xml version="1.0" encoding="utf-8"?>
<!-- Generator: Adobe Illustrator 27.2.0, SVG Export Plug-In . SVG Version: 6.00 Build 0)  -->
<svg version="1.1" id="Capa_1" xmlns="http://www.w3.org/2000/svg" xmlns:xlink="http://www.w3.org/1999/xlink" x="0px" y="0px"
	 viewBox="0 0 1000 400" style="enable-background:new 0 0 1000 400;" xml:space="preserve">
<style type="text/css">
	.st0{fill:#1D1D1B;}
	.st1{font-family:'BarlowSemiCondensed-Medium';}
	.st2{font-size:21.0973px;}
	.st3{fill:none;}
	.st4{fill:#1E1E1C;}
	.st5{font-family:'BarlowSemiCondensed-MediumItalic';}
	.st6{font-size:26.3716px;}
	.st7{font-family:'BarlowSemiCondensed-LightItalic';}
	.st8{fill:none;stroke:#DDDBDC;stroke-width:4;stroke-miterlimit:10;}
	.st9{fill:#DDDBDC;}
	.st10{font-family:'BarlowSemiCondensed-Light';}
	.st11{fill:none;stroke:#1D1D1B;stroke-width:0.35;stroke-linecap:round;stroke-linejoin:round;}
	.st12{fill:#F4E6D2;stroke:#CC1719;stroke-miterlimit:10;}
	.st13{fill:#CC1719;}
	.st14{fill:none;stroke:#1D1E1C;stroke-miterlimit:10;}
	.st15{fill:#1D1E1C;}
</style>
<g>
	<g>
		<text transform="matrix(1 0 0 1 644.9995 221.2756)" class="st0 st1 st2">1987</text>
	</g>
	<g>
		<text transform="matrix(1 0 0 1 699.1851 221.2756)" class="st0 st1 st2">1995</text>
	</g>
	<g>
		<rect x="474.1" y="54.7" class="st3" width="283.3" height="64.9"/>
		<text transform="matrix(1 0 0 1 537.1375 77.0784)"><tspan x="0" y="0" class="st4 st5 st6">Panamericanos</tspan><tspan x="-61.9" y="31.6" class="st4 st7 st6">Indianápolis, Estados Unidos</tspan></text>
	</g>
	<g>
		<rect x="471.5" y="285.6" class="st3" width="208.5" height="59.7"/>
		<text transform="matrix(1 0 0 1 471.5457 308.0352)"><tspan x="0" y="0" class="st4 st7 st6">Se suma la categoria </tspan><tspan x="0" y="31.6" class="st4 st7 st6">femenina de ruta</tspan></text>
	</g>
	<g>
		<rect x="699.9" y="285.6" class="st3" width="228.9" height="59.7"/>
		<text transform="matrix(1 0 0 1 699.8601 308.0352)"><tspan x="0" y="0" class="st4 st7 st6">Se incluye a la mujer </tspan><tspan x="0" y="31.6" class="st4 st7 st6">en carrera contrarreloj</tspan></text>
	</g>
	<g>
		<g>
			<line class="st8" x1="65.1" y1="187.7" x2="904.7" y2="187.7"/>
			<g>
				<polygon class="st9" points="904.3,184.1 904.3,191.4 907.9,187.7 				"/>
			</g>
		</g>
	</g>
	<g>
		<text transform="matrix(1 0 0 1 50.1304 140.9675)"><tspan x="0" y="0" class="st4 st5 st6">JJ.OO.</tspan><tspan x="0" y="31.6" class="st4 st7 st6">Atenas, Grecia</tspan></text>
	</g>
	<g>
		<text transform="matrix(1 0 0 1 321.9692 139.3652)"><tspan x="0" y="0" class="st4 st5 st6">Panamericanos</tspan><tspan x="-38.3" y="31.6" class="st4 st7 st6">Buenos Aires, Argentina</tspan></text>
	</g>
	<g>
		<text transform="matrix(1 0 0 1 49.7388 221.0649)" class="st0 st1 st2">1896</text>
	</g>
	<text transform="matrix(1 0 0 1 236.4458 221.0649)" class="st0 st10 st2">1925</text>
	<g>
		<text transform="matrix(1 0 0 1 402.7261 221.0649)" class="st0 st1 st2">1951</text>
	</g>
	<g>
		<text transform="matrix(1 0 0 1 878.0825 221.0649)" class="st0 st1 st2">2023</text>
	</g>
	<line class="st11" x1="90.6" y1="179.8" x2="90.6" y2="195.7"/>
	<line class="st11" x1="254" y1="179.8" x2="254" y2="195.7"/>
	<line class="st11" x1="417.5" y1="179.8" x2="417.5" y2="195.7"/>
	<line class="st11" x1="662.7" y1="182.4" x2="662.7" y2="192.3"/>
	<line class="st11" x1="717.2" y1="182.4" x2="717.2" y2="192.3"/>
	<ellipse class="st12" cx="417.7" cy="187.7" rx="7.3" ry="7.3"/>
	<ellipse class="st13" cx="65.1" cy="187.7" rx="7.3" ry="7.3"/>
	<g>
		<g>
			<polyline class="st14" points="662.7,223.1 662.7,270.1 568.7,270.1 568.7,280.6 			"/>
			<g>
				<path class="st15" d="M661.2,223.1c0-0.8,0.7-1.5,1.5-1.5c0.8,0,1.5,0.7,1.5,1.5c0,0.8-0.7,1.5-1.5,1.5
					C661.9,224.6,661.2,223.9,661.2,223.1z"/>
			</g>
		</g>
	</g>
	<g>
		<g>
			<polyline class="st14" points="717.2,223.1 717.2,270.1 803.6,270.1 803.6,280.6 			"/>
			<g>
				<path class="st15" d="M715.7,223.1c0-0.8,0.7-1.5,1.5-1.5c0.8,0,1.5,0.7,1.5,1.5c0,0.8-0.7,1.5-1.5,1.5
					C716.4,224.6,715.7,223.9,715.7,223.1z"/>
			</g>
		</g>
	</g>
	<ellipse class="st13" cx="662.7" cy="187.7" rx="7.3" ry="7.3"/>
	<ellipse class="st13" cx="717.2" cy="187.7" rx="7.3" ry="7.3"/>
	<g>
		<rect x="667" y="116.6" class="st3" width="283.3" height="64.9"/>
		<text transform="matrix(1 0 0 1 730.0618 139.0405)"><tspan x="0" y="0" class="st4 st5 st6">Panamericanos</tspan><tspan x="-35.1" y="31.6" class="st4 st7 st6">Mar delPlata, Argentina</tspan></text>
	</g>
</g>
</svg>
