<?xml version="1.0" encoding="utf-8"?>
<!-- Generator: Adobe Illustrator 27.2.0, SVG Export Plug-In . SVG Version: 6.00 Build 0)  -->
<svg version="1.1" id="Capa_1" xmlns="http://www.w3.org/2000/svg" xmlns:xlink="http://www.w3.org/1999/xlink" x="0px" y="0px"
	 viewBox="0 0 1000 1000" style="enable-background:new 0 0 1000 1000;" xml:space="preserve">
<style type="text/css">
	.st0{fill:#D3D1D1;}
	.st1{fill:#CC1719;}
	.st2{fill:#1E1E1C;}
	.st3{font-family:'BarlowSemiCondensed-Regular';}
	.st4{font-size:26.382px;}
</style>
<g>
	<g>
		<g>
			<g>
				<circle class="st1" cx="346.3" cy="201.8" r="6.6"/>
				<circle class="st1" cx="362.3" cy="201.8" r="6.6"/>
				<circle class="st1" cx="378.3" cy="201.8" r="6.6"/>
				<circle class="st1" cx="394.4" cy="201.8" r="6.6"/>
				<circle class="st1" cx="410.4" cy="201.8" r="6.6"/>
				<circle class="st1" cx="426.4" cy="201.8" r="6.6"/>
				<circle class="st1" cx="442.4" cy="201.8" r="6.6"/>
			</g>
			<g>
				<circle class="st0" cx="346.3" cy="183.8" r="6.6"/>
				<circle class="st0" cx="362.3" cy="183.8" r="6.6"/>
				<circle class="st0" cx="378.3" cy="183.8" r="6.6"/>
				<circle class="st0" cx="394.4" cy="183.8" r="6.6"/>
				<circle class="st0" cx="410.4" cy="183.8" r="6.6"/>
				<circle class="st0" cx="426.4" cy="183.8" r="6.6"/>
				<circle class="st0" cx="442.4" cy="183.8" r="6.6"/>
				<circle class="st0" cx="458.5" cy="183.8" r="6.6"/>
				<circle class="st0" cx="474.5" cy="183.8" r="6.6"/>
				<circle class="st0" cx="490.5" cy="183.8" r="6.6"/>
				<circle class="st0" cx="506.5" cy="183.8" r="6.6"/>
				<circle class="st0" cx="522.5" cy="183.8" r="6.6"/>
				<circle class="st0" cx="538.6" cy="183.8" r="6.6"/>
				<circle class="st1" cx="554.6" cy="183.8" r="6.6"/>
				<circle class="st1" cx="570.6" cy="183.8" r="6.6"/>
				<circle class="st1" cx="586.6" cy="183.8" r="6.6"/>
				<circle class="st1" cx="602.7" cy="183.8" r="6.6"/>
				<circle class="st1" cx="618.7" cy="183.8" r="6.6"/>
				<circle class="st1" cx="634.7" cy="183.8" r="6.6"/>
				<circle class="st1" cx="650.7" cy="183.8" r="6.6"/>
			</g>
		</g>
		<g>
			<text transform="matrix(1 0 0 1 339.6558 161.2976)" class="st2 st3 st4">Estados Unidos</text>
		</g>
		<g>
			<text transform="matrix(1 0 0 1 537.8667 227.4109)" class="st2 st3 st4">27 medallas</text>
		</g>
	</g>
	<g>
		<g>
			<circle class="st0" cx="346.3" cy="327.4" r="6.6"/>
			<circle class="st0" cx="362.3" cy="327.4" r="6.6"/>
			<circle class="st0" cx="378.3" cy="327.4" r="6.6"/>
			<circle class="st0" cx="394.4" cy="327.4" r="6.6"/>
			<circle class="st0" cx="410.4" cy="327.4" r="6.6"/>
			<circle class="st0" cx="426.4" cy="327.4" r="6.6"/>
			<circle class="st0" cx="442.4" cy="327.4" r="6.6"/>
			<circle class="st0" cx="458.5" cy="327.4" r="6.6"/>
			<circle class="st1" cx="474.5" cy="327.4" r="6.6"/>
			<circle class="st1" cx="490.5" cy="327.4" r="6.6"/>
			<circle class="st1" cx="506.5" cy="327.4" r="6.6"/>
			<circle class="st1" cx="522.5" cy="327.4" r="6.6"/>
			<circle class="st1" cx="538.6" cy="327.4" r="6.6"/>
			<circle class="st1" cx="554.6" cy="327.4" r="6.6"/>
			<circle class="st1" cx="570.6" cy="327.4" r="6.6"/>
			<circle class="st1" cx="586.6" cy="327.4" r="6.6"/>
			<circle class="st1" cx="602.7" cy="327.4" r="6.6"/>
			<circle class="st1" cx="618.7" cy="327.4" r="6.6"/>
			<circle class="st1" cx="634.7" cy="327.4" r="6.6"/>
			<circle class="st1" cx="650.7" cy="327.4" r="6.6"/>
		</g>
		<g>
			<text transform="matrix(1 0 0 1 339.6558 301.2048)" class="st2 st3 st4">Cuba</text>
		</g>
		<g>
			<text transform="matrix(1 0 0 1 536.0483 367.3201)" class="st2 st3 st4">20 medallas</text>
		</g>
	</g>
	<g>
		<g>
			<circle class="st0" cx="346.6" cy="466" r="6.6"/>
			<circle class="st0" cx="362.6" cy="466" r="6.6"/>
			<circle class="st0" cx="378.6" cy="466" r="6.6"/>
			<circle class="st0" cx="394.6" cy="466" r="6.6"/>
			<circle class="st0" cx="410.7" cy="466" r="6.6"/>
			<circle class="st0" cx="426.7" cy="466" r="6.6"/>
			<circle class="st0" cx="442.7" cy="466" r="6.6"/>
			<circle class="st0" cx="458.7" cy="466" r="6.6"/>
			<circle class="st0" cx="474.8" cy="466" r="6.6"/>
			<circle class="st0" cx="490.8" cy="466" r="6.6"/>
			<circle class="st0" cx="506.8" cy="466" r="6.6"/>
			<circle class="st1" cx="522.8" cy="466" r="6.6"/>
			<circle class="st1" cx="538.9" cy="466" r="6.6"/>
			<circle class="st1" cx="554.9" cy="466" r="6.6"/>
			<circle class="st1" cx="570.9" cy="466" r="6.6"/>
			<circle class="st1" cx="586.9" cy="466" r="6.6"/>
			<circle class="st1" cx="602.9" cy="466" r="6.6"/>
			<circle class="st1" cx="619" cy="466" r="6.6"/>
		</g>
		<g>
			<text transform="matrix(1 0 0 1 339.6548 441.114)" class="st2 st3 st4">Canadá</text>
		</g>
		<g>
			<text transform="matrix(1 0 0 1 538.8511 504.8845)" class="st2 st3 st4">18 medallas</text>
		</g>
	</g>
	<g>
		<g>
			<circle class="st0" cx="346.6" cy="603.6" r="6.6"/>
			<circle class="st0" cx="362.6" cy="603.6" r="6.6"/>
			<circle class="st0" cx="378.6" cy="603.6" r="6.6"/>
			<circle class="st0" cx="394.6" cy="603.6" r="6.6"/>
			<circle class="st0" cx="410.7" cy="603.6" r="6.6"/>
			<circle class="st0" cx="426.7" cy="603.6" r="6.6"/>
			<circle class="st0" cx="442.7" cy="603.6" r="6.6"/>
			<circle class="st0" cx="458.7" cy="603.6" r="6.6"/>
			<circle class="st0" cx="474.8" cy="603.6" r="6.6"/>
			<circle class="st0" cx="490.8" cy="603.6" r="6.6"/>
			<circle class="st0" cx="506.8" cy="603.6" r="6.6"/>
			<circle class="st0" cx="522.8" cy="603.6" r="6.6"/>
			<circle class="st0" cx="538.9" cy="603.6" r="6.6"/>
			<circle class="st0" cx="554.9" cy="603.6" r="6.6"/>
			<circle class="st0" cx="570.9" cy="603.6" r="6.6"/>
		</g>
		<g>
			<text transform="matrix(1 0 0 1 339.6558 578.6785)" class="st2 st3 st4">Argentina</text>
		</g>
		<g>
			<text transform="matrix(1 0 0 1 543.9751 642.449)" class="st2 st3 st4">15 medallas</text>
		</g>
	</g>
	<g>
		<g>
			<circle class="st0" cx="346.6" cy="741.2" r="6.6"/>
			<circle class="st0" cx="362.6" cy="741.2" r="6.6"/>
			<circle class="st0" cx="378.6" cy="741.2" r="6.6"/>
			<circle class="st0" cx="394.6" cy="741.2" r="6.6"/>
			<circle class="st0" cx="410.7" cy="741.2" r="6.6"/>
			<circle class="st0" cx="426.7" cy="741.2" r="6.6"/>
			<circle class="st0" cx="442.7" cy="741.2" r="6.6"/>
			<circle class="st0" cx="458.7" cy="741.2" r="6.6"/>
			<circle class="st0" cx="474.8" cy="741.2" r="6.6"/>
			<circle class="st0" cx="490.8" cy="741.2" r="6.6"/>
			<circle class="st0" cx="506.8" cy="741.2" r="6.6"/>
			<circle class="st0" cx="522.8" cy="741.2" r="6.6"/>
			<circle class="st1" cx="538.9" cy="741.2" r="6.6"/>
		</g>
		<g>
			<text transform="matrix(1 0 0 1 339.6558 716.2429)" class="st2 st3 st4">Colombia</text>
		</g>
		<g>
			<text transform="matrix(1 0 0 1 538.8521 780.0144)" class="st2 st3 st4">13 medallas</text>
		</g>
	</g>
	<g>
		<g>
			<circle class="st0" cx="346.6" cy="878.7" r="6.6"/>
			<circle class="st0" cx="362.6" cy="878.7" r="6.6"/>
			<circle class="st0" cx="378.6" cy="878.7" r="6.6"/>
			<circle class="st0" cx="394.6" cy="878.7" r="6.6"/>
			<circle class="st0" cx="410.7" cy="878.7" r="6.6"/>
			<circle class="st0" cx="426.7" cy="878.7" r="6.6"/>
			<circle class="st0" cx="442.7" cy="878.7" r="6.6"/>
			<circle class="st0" cx="458.7" cy="878.7" r="6.6"/>
			<circle class="st0" cx="474.8" cy="878.7" r="6.6"/>
			<circle class="st0" cx="490.8" cy="878.7" r="6.6"/>
			<circle class="st0" cx="506.8" cy="878.7" r="6.6"/>
			<circle class="st0" cx="522.8" cy="878.7" r="6.6"/>
			<circle class="st0" cx="538.9" cy="878.7" r="6.6"/>
			<circle class="st0" cx="554.9" cy="878.7" r="6.6"/>
			<circle class="st0" cx="570.9" cy="878.7" r="6.6"/>
		</g>
		<g>
			<text transform="matrix(1 0 0 1 339.6558 853.8083)" class="st2 st3 st4">buscar un 6</text>
		</g>
		<g>
			<text transform="matrix(1 0 0 1 543.9761 917.5789)" class="st2 st3 st4">15 medallas</text>
		</g>
	</g>
	<g>
		<g>
			<g>
				<text transform="matrix(1 0 0 1 361.3257 99.2527)" class="st2 st3 st4">Hombres</text>
			</g>
			<circle class="st0" cx="346.3" cy="88.4" r="6.6"/>
		</g>
		<g>
			<g>
				<text transform="matrix(1 0 0 1 493.1929 99.2527)" class="st2 st3 st4">Mujeres</text>
			</g>
			<circle class="st1" cx="478.1" cy="88.4" r="6.6"/>
		</g>
	</g>
</g>
</svg>
