<?xml version="1.0" encoding="utf-8"?>
<!-- Generator: Adobe Illustrator 27.2.0, SVG Export Plug-In . SVG Version: 6.00 Build 0)  -->
<svg version="1.1" id="Capa_1" xmlns="http://www.w3.org/2000/svg" xmlns:xlink="http://www.w3.org/1999/xlink" x="0px" y="0px"
	 viewBox="0 0 1000 1000" style="enable-background:new 0 0 1000 1000;" xml:space="preserve">
<style type="text/css">
	.st0{fill:#D3D1D1;}
	.st1{fill:#CC1719;}
	.st2{fill:#1E1E1C;}
	.st3{font-family:'BarlowSemiCondensed-Regular';}
	.st4{font-size:27.1023px;}
</style>
<g>
	<g>
		<circle class="st0" cx="531.5" cy="397.1" r="6.8"/>
		<circle class="st0" cx="547.9" cy="397.1" r="6.8"/>
		<circle class="st0" cx="564.4" cy="397.1" r="6.8"/>
		<circle class="st0" cx="580.8" cy="397.1" r="6.8"/>
		<circle class="st0" cx="597.3" cy="397.1" r="6.8"/>
		<circle class="st0" cx="613.8" cy="397.1" r="6.8"/>
		<circle class="st0" cx="630.2" cy="397.1" r="6.8"/>
		<circle class="st0" cx="646.7" cy="397.1" r="6.8"/>
		<circle class="st1" cx="663.2" cy="397.1" r="6.8"/>
		<circle class="st1" cx="679.6" cy="397.1" r="6.8"/>
		<circle class="st1" cx="696.1" cy="397.1" r="6.8"/>
		<circle class="st1" cx="712.5" cy="397.1" r="6.8"/>
		<circle class="st1" cx="729" cy="397.1" r="6.8"/>
		<circle class="st1" cx="745.5" cy="397.1" r="6.8"/>
		<circle class="st1" cx="761.9" cy="397.1" r="6.8"/>
		<circle class="st1" cx="778.4" cy="397.1" r="6.8"/>
		<circle class="st1" cx="794.8" cy="397.1" r="6.8"/>
		<circle class="st1" cx="811.3" cy="397.1" r="6.8"/>
		<circle class="st1" cx="827.8" cy="397.1" r="6.8"/>
		<circle class="st1" cx="844.2" cy="397.1" r="6.8"/>
	</g>
	<g>
		<g>
			<circle class="st1" cx="157.7" cy="415.5" r="6.8"/>
			<circle class="st1" cx="174.1" cy="415.5" r="6.8"/>
			<circle class="st1" cx="190.6" cy="415.5" r="6.8"/>
			<circle class="st1" cx="207" cy="415.5" r="6.8"/>
			<circle class="st1" cx="223.5" cy="415.5" r="6.8"/>
			<circle class="st1" cx="240" cy="415.5" r="6.8"/>
			<circle class="st1" cx="256.4" cy="415.5" r="6.8"/>
		</g>
		<g>
			<circle class="st0" cx="157.7" cy="397.1" r="6.8"/>
			<circle class="st0" cx="174.1" cy="397.1" r="6.8"/>
			<circle class="st0" cx="190.6" cy="397.1" r="6.8"/>
			<circle class="st0" cx="207" cy="397.1" r="6.8"/>
			<circle class="st0" cx="223.5" cy="397.1" r="6.8"/>
			<circle class="st0" cx="240" cy="397.1" r="6.8"/>
			<circle class="st0" cx="256.4" cy="397.1" r="6.8"/>
			<circle class="st0" cx="272.9" cy="397.1" r="6.8"/>
			<circle class="st0" cx="289.4" cy="397.1" r="6.8"/>
			<circle class="st0" cx="305.8" cy="397.1" r="6.8"/>
			<circle class="st0" cx="322.3" cy="397.1" r="6.8"/>
			<circle class="st0" cx="338.7" cy="397.1" r="6.8"/>
			<circle class="st0" cx="355.2" cy="397.1" r="6.8"/>
			<circle class="st1" cx="371.7" cy="397.1" r="6.8"/>
			<circle class="st1" cx="388.1" cy="397.1" r="6.8"/>
			<circle class="st1" cx="404.6" cy="397.1" r="6.8"/>
			<circle class="st1" cx="421" cy="397.1" r="6.8"/>
			<circle class="st1" cx="437.5" cy="397.1" r="6.8"/>
			<circle class="st1" cx="454" cy="397.1" r="6.8"/>
			<circle class="st1" cx="470.4" cy="397.1" r="6.8"/>
		</g>
	</g>
	<g>
		<circle class="st0" cx="154" cy="536.7" r="6.8"/>
		<circle class="st0" cx="170.5" cy="536.7" r="6.8"/>
		<circle class="st0" cx="186.9" cy="536.7" r="6.8"/>
		<circle class="st0" cx="203.4" cy="536.7" r="6.8"/>
		<circle class="st0" cx="219.9" cy="536.7" r="6.8"/>
		<circle class="st0" cx="236.3" cy="536.7" r="6.8"/>
		<circle class="st0" cx="252.8" cy="536.7" r="6.8"/>
		<circle class="st0" cx="269.2" cy="536.7" r="6.8"/>
		<circle class="st0" cx="285.7" cy="536.7" r="6.8"/>
		<circle class="st0" cx="302.2" cy="536.7" r="6.8"/>
		<circle class="st0" cx="318.6" cy="536.7" r="6.8"/>
		<circle class="st1" cx="335.1" cy="536.7" r="6.8"/>
		<circle class="st1" cx="351.5" cy="536.7" r="6.8"/>
		<circle class="st1" cx="368" cy="536.7" r="6.8"/>
		<circle class="st1" cx="384.5" cy="536.7" r="6.8"/>
		<circle class="st1" cx="400.9" cy="536.7" r="6.8"/>
		<circle class="st1" cx="417.4" cy="536.7" r="6.8"/>
		<circle class="st1" cx="433.8" cy="536.7" r="6.8"/>
	</g>
	<g>
		<text transform="matrix(1 0 0 1 150.846 373.9578)" class="st2 st3 st4">Estados Unidos</text>
	</g>
	<g>
		<text transform="matrix(1 0 0 1 354.4681 441.8757)" class="st2 st3 st4">27 medallas</text>
	</g>
	<g>
		<text transform="matrix(1 0 0 1 524.6463 370.2009)" class="st2 st3 st4">Cuba</text>
	</g>
	<g>
		<text transform="matrix(1 0 0 1 726.4022 438.1208)" class="st2 st3 st4">20 medallas</text>
	</g>
	<g>
		<text transform="matrix(1 0 0 1 146.9041 511.1111)" class="st2 st3 st4">Canadá</text>
	</g>
	<g>
		<text transform="matrix(1 0 0 1 351.5399 576.6228)" class="st2 st3 st4">18 medallas</text>
	</g>
	<g>
		<circle class="st0" cx="533" cy="536.7" r="6.8"/>
		<circle class="st0" cx="549.5" cy="536.7" r="6.8"/>
		<circle class="st0" cx="565.9" cy="536.7" r="6.8"/>
		<circle class="st0" cx="582.4" cy="536.7" r="6.8"/>
		<circle class="st0" cx="598.9" cy="536.7" r="6.8"/>
		<circle class="st0" cx="615.3" cy="536.7" r="6.8"/>
		<circle class="st0" cx="631.8" cy="536.7" r="6.8"/>
		<circle class="st0" cx="648.2" cy="536.7" r="6.8"/>
		<circle class="st0" cx="664.7" cy="536.7" r="6.8"/>
		<circle class="st0" cx="681.2" cy="536.7" r="6.8"/>
		<circle class="st0" cx="697.6" cy="536.7" r="6.8"/>
		<circle class="st0" cx="714.1" cy="536.7" r="6.8"/>
		<circle class="st0" cx="730.5" cy="536.7" r="6.8"/>
		<circle class="st0" cx="747" cy="536.7" r="6.8"/>
		<circle class="st0" cx="763.5" cy="536.7" r="6.8"/>
	</g>
	<g>
		<text transform="matrix(1 0 0 1 525.9129 511.1111)" class="st2 st3 st4">Argentina</text>
	</g>
	<g>
		<text transform="matrix(1 0 0 1 735.8113 576.6228)" class="st2 st3 st4">15 medallas</text>
	</g>
	<g>
		<circle class="st0" cx="154" cy="667.2" r="6.8"/>
		<circle class="st0" cx="170.5" cy="667.2" r="6.8"/>
		<circle class="st0" cx="186.9" cy="667.2" r="6.8"/>
		<circle class="st0" cx="203.4" cy="667.2" r="6.8"/>
		<circle class="st0" cx="219.9" cy="667.2" r="6.8"/>
		<circle class="st0" cx="236.3" cy="667.2" r="6.8"/>
		<circle class="st0" cx="252.8" cy="667.2" r="6.8"/>
		<circle class="st0" cx="269.2" cy="667.2" r="6.8"/>
		<circle class="st0" cx="285.7" cy="667.2" r="6.8"/>
		<circle class="st0" cx="302.2" cy="667.2" r="6.8"/>
		<circle class="st0" cx="318.6" cy="667.2" r="6.8"/>
		<circle class="st0" cx="335.1" cy="667.2" r="6.8"/>
		<circle class="st1" cx="351.5" cy="667.2" r="6.8"/>
	</g>
	<g>
		<text transform="matrix(1 0 0 1 146.9041 641.5593)" class="st2 st3 st4">Colombia</text>
	</g>
	<g>
		<text transform="matrix(1 0 0 1 351.5399 707.071)" class="st2 st3 st4">13 medallas</text>
	</g>
	<g>
		<circle class="st0" cx="533" cy="667.2" r="6.8"/>
		<circle class="st0" cx="549.5" cy="667.2" r="6.8"/>
		<circle class="st0" cx="565.9" cy="667.2" r="6.8"/>
		<circle class="st0" cx="582.4" cy="667.2" r="6.8"/>
		<circle class="st0" cx="598.9" cy="667.2" r="6.8"/>
		<circle class="st0" cx="615.3" cy="667.2" r="6.8"/>
		<circle class="st0" cx="631.8" cy="667.2" r="6.8"/>
		<circle class="st0" cx="648.2" cy="667.2" r="6.8"/>
		<circle class="st0" cx="664.7" cy="667.2" r="6.8"/>
		<circle class="st0" cx="681.2" cy="667.2" r="6.8"/>
		<circle class="st0" cx="697.6" cy="667.2" r="6.8"/>
		<circle class="st0" cx="714.1" cy="667.2" r="6.8"/>
		<circle class="st0" cx="730.5" cy="667.2" r="6.8"/>
		<circle class="st0" cx="747" cy="667.2" r="6.8"/>
		<circle class="st0" cx="763.5" cy="667.2" r="6.8"/>
	</g>
	<g>
		<text transform="matrix(1 0 0 1 525.9129 641.5593)" class="st2 st3 st4">buscar un 6</text>
	</g>
	<g>
		<text transform="matrix(1 0 0 1 735.8113 707.071)" class="st2 st3 st4">15 medallas</text>
	</g>
	<g>
		<g>
			<g>
				<text transform="matrix(1 0 0 1 166.9041 310.2195)" class="st2 st3 st4">Hombres</text>
			</g>
			<circle class="st0" cx="151.4" cy="299.1" r="6.8"/>
		</g>
		<g>
			<g>
				<text transform="matrix(1 0 0 1 302.3729 310.2195)" class="st2 st3 st4">Mujeres</text>
			</g>
			<circle class="st1" cx="286.9" cy="299.1" r="6.8"/>
		</g>
	</g>
</g>
</svg>
