<?xml version="1.0" encoding="utf-8"?>
<!-- Generator: Adobe Illustrator 27.2.0, SVG Export Plug-In . SVG Version: 6.00 Build 0)  -->
<svg version="1.1" id="Capa_1" xmlns="http://www.w3.org/2000/svg" xmlns:xlink="http://www.w3.org/1999/xlink" x="0px" y="0px"
	 viewBox="0 0 1000 1000" style="enable-background:new 0 0 1000 1000;" xml:space="preserve">
<style type="text/css">
	.st0{fill:#868282;}
	.st1{fill:#BEBBBC;}
</style>
<path id="oscuro" class="st0" d="M553.4,703.3c0,11-12.3,20-23.4,20h-57.2c-10.7,0.1-23-8.7-23-20c0-11.2,12.2-20.1,23-20
	c0,0,57.2,0,57.2,0C541.1,683.3,553.4,692.3,553.4,703.3z"/>
<path id="claro" class="st1" d="M552,296.7c0,11-12.3,20-23.4,20h-57.2c-10.7,0.1-23-8.7-23-20c0-11.2,12.2-20.1,23-20
	c0,0,57.2,0,57.2,0C539.7,276.7,552,285.7,552,296.7z"/>
<g id="centro">
	<path class="st0" d="M485.7,683.2c-1.6-39-4.9-89.4-7.7-129.1c-1.2-20.2-2.1-38.2-2.1-50.3c-0.2-38.6,51-35,49.3,1.1
		c0,2-1.8,35.3-2.7,55.7c-2,36.4-3.8,87.1-4.8,122.9c-1.1,11.3-11,16.8-17.6,16.8C493.7,700.4,489.2,694.9,485.7,683.2z"/>
	<path class="st1" d="M620.6,501.1c-4,158.9-237.3,158.8-241.1,0c-0.7-60.9,47.8-114.4,108.1-119.9
		C557.1,372.7,621.9,431.5,620.6,501.1z M554.5,478c-23.3-58.1-114.6-40.6-113.6,23.1c0,32.7,26.5,59.1,59.2,59.1
		C542,561.1,571.2,515.3,554.5,478z"/>
	<path class="st1" d="M516.1,320.5c1.8,37.7,5.1,85.2,7.7,123.6c1.2,20.2,2.1,38.2,2.1,50.3c0.2,38.6-51,35-49.3-1.1
		c0-2,1.8-35.3,2.7-55.7c1.8-35.2,3.7-82.8,4.8-117.4C484,291.9,516.4,292,516.1,320.5z"/>
</g>
</svg>
