<?xml version="1.0" encoding="utf-8"?>
<!-- Generator: Adobe Illustrator 27.2.0, SVG Export Plug-In . SVG Version: 6.00 Build 0)  -->
<svg version="1.1" id="Capa_1" xmlns="http://www.w3.org/2000/svg" xmlns:xlink="http://www.w3.org/1999/xlink" x="0px" y="0px"
	 viewBox="0 0 1000 1000" style="enable-background:new 0 0 1000 1000;" xml:space="preserve">
<style type="text/css">
	.st0{fill:#7E7A7A;}
	.st1{fill:#DEDDDD;}
	.st2{fill:#CC1719;}
	.st3{fill:none;stroke:#CC1719;stroke-miterlimit:10;}
	
		.st4{clip-path:url(#SVGID_00000108278467115396629860000008118882728240549554_);fill:none;stroke:#FFFFFF;stroke-width:1.0621;stroke-miterlimit:10;}
	
		.st5{clip-path:url(#SVGID_00000108278467115396629860000008118882728240549554_);fill:none;stroke:#FFFFFF;stroke-width:2;stroke-miterlimit:10;}
	.st6{fill:#868281;}
	.st7{fill:none;stroke:#CC1719;stroke-width:0.5;stroke-miterlimit:10;}
	.st8{fill:none;stroke:#1D1D1B;stroke-width:0.4;stroke-miterlimit:10;}
	.st9{fill:#1E1E1C;}
	
		.st10{clip-path:url(#SVGID_00000107584297319360248670000013514271209025886862_);fill:none;stroke:#FFFFFF;stroke-width:1.0621;stroke-miterlimit:10;}
	
		.st11{clip-path:url(#SVGID_00000107584297319360248670000013514271209025886862_);fill:none;stroke:#FFFFFF;stroke-width:2;stroke-miterlimit:10;}
	.st12{fill:#FFFFFF;}
	.st13{font-family:'BarlowSemiCondensed-SemiBold';}
	.st14{font-size:31.6883px;}
	.st15{font-size:47.4146px;}
	.st16{font-family:'BarlowSemiCondensed-Regular';}
	.st17{font-size:29.0476px;}
	.st18{font-family:'BarlowSemiCondensed-LightItalic';}
	.st19{font-size:36.2772px;}
	.st20{font-size:41.5174px;}
	.st21{font-family:'BarlowSemiCondensed-Light';}
	.st22{font-size:36.9044px;}
	.st23{font-family:'BarlowSemiCondensed-Medium';}
</style>
<g>
	<g>
		<g>
			<defs>
				<rect id="SVGID_00000001637714632637850540000016792390540845738644_" x="245" y="319" width="507.1" height="529"/>
			</defs>
			<use xlink:href="#SVGID_00000001637714632637850540000016792390540845738644_"  style="overflow:visible;fill:#D3D1D1;"/>
			<clipPath id="SVGID_00000061448546566852955770000005456182031394558387_">
				<use xlink:href="#SVGID_00000001637714632637850540000016792390540845738644_"  style="overflow:visible;"/>
			</clipPath>
			
				<polyline style="clip-path:url(#SVGID_00000061448546566852955770000005456182031394558387_);fill:none;stroke:#FFFFFF;stroke-width:1.0621;stroke-miterlimit:10;" points="
				546.1,289.3 532.6,297 527.7,316.3 535.2,345.6 523.2,376.4 483.3,438.2 460,451.6 360.8,517 306.6,534.9 251.7,508 212,492.7 
							"/>
			
				<polyline style="clip-path:url(#SVGID_00000061448546566852955770000005456182031394558387_);fill:none;stroke:#FFFFFF;stroke-width:2;stroke-miterlimit:10;" points="
				692.4,859.2 685.6,827.5 678.1,799.1 669.1,792.3 661.6,741.9 675.1,626.8 685.6,583.2 701.4,547.1 704.4,518.5 699.9,496.7 
				703.7,475.7 718.7,429.1 714.3,365.1 715,329.8 722.6,284.7 			"/>
			
				<polyline style="clip-path:url(#SVGID_00000061448546566852955770000005456182031394558387_);fill:none;stroke:#FFFFFF;stroke-width:2;stroke-miterlimit:10;" points="
				685.6,827.5 719.5,776.4 725.5,708.8 722.5,671.2 733.8,636.6 727,602.8 736.8,521.6 757.1,495.2 773.6,463.7 788.7,451.6 
				796.9,417 808.3,410.4 839.8,410.3 			"/>
			
				<path style="clip-path:url(#SVGID_00000061448546566852955770000005456182031394558387_);fill:none;stroke:#FFFFFF;stroke-width:1.0621;stroke-miterlimit:10;" d="
				M663.7,723.5l-50.8-57c0,0-29.6-41.1-31.2-41.1c-1.6,0-21.4-19.2-21.4-19.2l-44.9-22.3l-18.6,31.6l-34-12.1l-4.9,6.6l-9.5-5.5
				l5.1-12.1L434.8,575l-2.2-7.7l2.7-3.8l-2.2-7.7l-9.3-5.4l-7.7-19.3h-8.2l7.7-24.7l11.5-16.4l-7.6-11.7"/>
			
				<polyline style="clip-path:url(#SVGID_00000061448546566852955770000005456182031394558387_);fill:none;stroke:#FFFFFF;stroke-width:1.0621;stroke-miterlimit:10;" points="
				515.3,583.9 521.9,575 517.5,535.5 526.3,482.3 572.3,422.6 598.1,393.5 633.7,319.5 638.7,311.3 			"/>
			
				<polyline style="clip-path:url(#SVGID_00000061448546566852955770000005456182031394558387_);fill:none;stroke:#FFFFFF;stroke-width:1.0621;stroke-miterlimit:10;" points="
				519.2,578.7 505.6,576 477.5,575 472,583.9 462.7,603.5 			"/>
		</g>
		<g>
			<path class="st6" d="M669.3,666.9l4.4-3.2h5.6c9.3,0,12.7-12.8,8.8-17.7c-3.9-4.9,0.7-9.2,0.7-9.2l-5.8-8.2
				c-7.8,6.4-13.6,0-13.6,0s-5.8,6.4-13.6,0l-5.8,8.2c0,0,4.6,4.4,0.7,9.2c-3.9,4.9-0.5,17.7,8.8,17.7h5.6L669.3,666.9z"/>
			<text transform="matrix(1 0 0 1 661.7764 658.7598)" class="st12 st13 st14">5</text>
		</g>
		<polygon class="st2" points="488.4,579.2 491.4,588.3 501,588.3 493.3,594 496.2,603.1 488.4,597.5 480.7,603.1 483.6,594 
			475.8,588.3 485.5,588.3 		"/>
		<g>
			<text transform="matrix(1 0 0 1 367.1172 729.0547)" class="st9 st13 st15">Plaza Central</text>
		</g>
		<circle class="st3" cx="489.1" cy="594.1" r="41.6"/>
		<line class="st7" x1="489.1" y1="636.6" x2="489.1" y2="682"/>
		<g>
			<polyline class="st8" points="292.1,764.2 300.2,756.1 308.3,764.2 			"/>
			<g>
				<text transform="matrix(1 0 0 1 291.9268 803.7383)" class="st9 st16 st17">N</text>
			</g>
			<circle class="st8" cx="300.2" cy="794.1" r="21.4"/>
			<line class="st8" x1="300.2" y1="772.7" x2="300.2" y2="756.1"/>
			<line class="st8" x1="300.2" y1="828.9" x2="300.2" y2="815.5"/>
		</g>
		<g>
			<g>
				<text transform="matrix(1 0 0 1 343.0889 375.3833)" class="st9 st18 st19">Peñaflor</text>
			</g>
			<circle class="st9" cx="477.6" cy="365.6" r="7"/>
		</g>
		<g>
			<g>
				<text transform="matrix(1 0 0 1 593.7227 581.9668)" class="st9 st18 st19">Buin</text>
			</g>
			<circle class="st9" cx="674.3" cy="572.1" r="7"/>
		</g>
	</g>
	<g>
		<g>
			<g>
				<text transform="matrix(1 0 0 1 591.8223 187.2886)"><tspan x="0" y="0" class="st9 st13 st20">Fechas </tspan><tspan x="0" y="46.1" class="st9 st21 st22">30/10 al 4/11</tspan></text>
			</g>
		</g>
		<path class="st0" d="M574.4,168v-4.1h-3.5v4.1h-8.9v-4.1h-3.5v4.1h-3.3v19.6h22.5V168H574.4z M561.9,184.4h-3.4v-2.9h3.4V184.4z
			 M561.9,179.2h-3.4v-2.9h3.4V179.2z M567.9,184.4h-3.4v-2.9h3.4V184.4z M567.9,179.2h-3.4v-2.9h3.4V179.2z M567.9,174h-3.4v-2.9
			h3.4V174z M573.9,179.2h-3.4v-2.9h3.4V179.2z M573.9,174h-3.4v-2.9h3.4V174z"/>
	</g>
	<g>
		<text transform="matrix(1 0 0 1 275.3145 187.2891)"><tspan x="0" y="0" class="st9 st23 st20">Isla de Maipo</tspan><tspan x="208.9" y="0" class="st9 st16 st20">,</tspan><tspan x="0" y="46.1" class="st9 st16 st20">Región </tspan><tspan x="0" y="92.3" class="st9 st16 st20">Metropolitana.</tspan></text>
		<path class="st0" d="M253.3,164c-4.6,0-8.3,3.7-8.3,8.3v2.1c0,4.6,8.3,13,8.3,13c0,0,8.3-8.4,8.3-13v-2.1
			C261.6,167.7,257.9,164,253.3,164z M253.3,177.1c-2.4,0-4.4-1.9-4.4-4.4s1.9-4.4,4.4-4.4c2.4,0,4.4,1.9,4.4,4.4
			S255.7,177.1,253.3,177.1z"/>
	</g>
</g>
</svg>
