<?xml version="1.0" encoding="utf-8"?>
<!-- Generator: Adobe Illustrator 27.2.0, SVG Export Plug-In . SVG Version: 6.00 Build 0)  -->
<svg version="1.1" id="Capa_1" xmlns="http://www.w3.org/2000/svg" xmlns:xlink="http://www.w3.org/1999/xlink" x="0px" y="0px"
	 viewBox="0 0 1000 1000" style="enable-background:new 0 0 1000 1000;" xml:space="preserve">
<style type="text/css">
	.st0{fill:#FFFFFF;stroke:#BEBBBC;stroke-width:17;stroke-miterlimit:10;}
	.st1{fill:#C6C6C5;}
	.st2{fill:#BEBBBC;stroke:#868282;stroke-width:1.000000e-02;stroke-miterlimit:10;}
	.st3{fill:#A19D9D;}
	.st4{fill:#6F6B6A;}
	.st5{fill:none;stroke:#6F6B6A;stroke-width:0.25;stroke-miterlimit:10;}
	.st6{fill:#DDDBDC;}
	.st7{fill:#ECECEC;}
	.st8{fill:#BEBBBC;}
	.st9{fill:#868282;}
	.st10{fill:none;}
	.st11{fill:#575756;}
	.st12{fill:#43413F;}
	.st13{fill:#585554;}
	.st14{fill:none;stroke:#CC1719;stroke-width:2;stroke-linecap:round;stroke-miterlimit:10;}
	.st15{fill:#CC1719;}
	.st16{fill:#1E1E1C;}
	.st17{font-family:'BarlowSemiCondensed-Light';}
	.st18{font-size:34.6384px;}
	.st19{fill:#1D1D1B;}
	.st20{fill:#FFFFFF;}
	.st21{font-family:'BarlowSemiCondensed-SemiBold';}
	.st22{font-size:23.4475px;}
	.st23{font-size:23.4497px;}


	#grupo-musculo{
		opacity:0;
	}
	g:hover + #grupo-musculo{
		opacity:100; animation-delay:2s;
	}




</style>
<g id="grafica">
	<circle id="rueda-1" class="st0" cx="605" cy="567" r="63.5"/>
	<g id="pierna-2">
		<g>
			<g>
				<g>
					<path class="st1" d="M499.9,499.5l-0.3,0.8c0,0,0,0.1-0.1,0.1l-33,89.5h0c-1.6,4.8-6.8,7.5-11.6,6c-4.9-1.5-7.6-6.8-6.1-11.7
						c0,0,0-0.1,0-0.1l0-0.1l0,0l24.4-85.4L418,436.3l-3.1-3.5c-7.3-10.2-4.9-24.4,5.3-31.6c10.2-7.3,24.4-4.9,31.6,5.2l2.3,4.1
						l44.1,77.5l0,0C500.5,491.2,501.3,495.4,499.9,499.5z"/>
				</g>
				<path class="st2" d="M418,436.3c-1.1-1.1-2.2-2.2-3.1-3.5L418,436.3z"/>
				<path class="st2" d="M454.1,410.5l-2.3-4.1C452.7,407.6,453.5,409,454.1,410.5z"/>
				<path class="st2" d="M469.8,581.7c0,0,12.1,15.6,18,18c5.9,2.4,11.1,3.7,10.9,7.2c-0.2,3.5-10.2,8.8-22.2,4.3
					c-12-4.4-10.4-6.8-22.4-10.8c-12-4-12.2-6.5-11.5-10.2s5.5-11,7.9-9.3c1.4,0.9-0.4,6.2,3.6,8C457,590.3,465,594,469.8,581.7z"/>
				<circle class="st2" cx="475.2" cy="597.7" r="1.7"/>
				<circle class="st2" cx="464.7" cy="594.2" r="1.7"/>
				<g>
					<path class="st3" d="M480.6,552.3L466.5,590l0,0.1c-1.4,4.3-5.8,7-10.3,6.3c-5.1-0.8-8.5-5.6-7.7-10.7c0.1-0.5,0.2-1,0.4-1.4
						l10.7-36.7L480.6,552.3z"/>
				</g>
			</g>
			<g>
				<g>
					<path class="st3" d="M479.2,454.7l-25.2-44.3l-2.3-4.1c-7.3-10.2-21.5-12.5-31.6-5.2c-10.2,7.3-12.5,21.5-5.3,31.6l3.1,3.5
						l31.2,35.3L479.2,454.7z"/>
				</g>
				<g>
					<path class="st4" d="M469.8,581.7c0,0,12.1,15.6,18,18c5.9,2.4,11.1,3.7,10.9,7.2c-0.2,3.5-10.2,8.8-22.2,4.3
						c-12-4.4-10.4-6.8-22.4-10.8c-12-4-12.2-6.5-11.5-10.2s5.5-11,7.9-9.3c1.4,0.9-0.4,6.2,3.6,8C457,590.3,465,594,469.8,581.7z"
						/>
				</g>
				<circle class="st2" cx="475.2" cy="597.7" r="1.7"/>
				<circle class="st2" cx="464.7" cy="594.2" r="1.7"/>
			</g>
		</g>
	</g>
	<circle id="rueda-2" class="st0" cx="394" cy="567" r="63.5"/>
	<path class="st5" d="M648.7,567.6c0,23.8-19.3,43.1-43.1,43.1"/>
	<path class="st5" d="M562.4,567.6c0-23.8,19.3-43.1,43.1-43.1"/>
	<path class="st5" d="M439.6,571c0,23.8-19.3,43.1-43.1,43.1"/>
	<path class="st5" d="M349.2,563.4c0-23.8,19.3-43.1,43.1-43.1"/>
	<path class="st6" d="M608.7,565.2c-1-2.5-11-28.8-19.3-50.1c-2.3-6.1-4.5-11.7-6.4-16.3c-1.2-3.2-2.3-5.8-3.1-7.7
		c-0.5-1.2-1.3-3.9-2.3-7.2c-3,0.5-5.5,0.6-6.3,0.6c-2.2-0.2-1.9-6.2-0.1-6.3c0.6,0,2.4-0.2,4.6-0.5c-2-6.9-4.3-14.1-5.9-16.3l0-1
		c0,0,0,0,0,0s0,0,0,0c0-0.1,0-0.5-0.1-2.7c-0.2-2.5,11.8-3.3,11.8-3.3c-6.7-1.4-4.1-4.7-2.2-5.2c-2,0.4-18.8,2.8-20.1,3.6
		c-1.7,1.1,1.4,5.6,1.4,7.4v3c-4.5,0.3-77.3,5.5-107.5,9.3l0.5-0.1l-1.4-3.2l-10.8-34.6l-9.5-0.5l-1.9,0.8l9.9,34.6l1.1,5
		c0.5,8.7,10.2,25.5,5.7,29.3c-1,0.9-3.8,3.4-7.4,7c-3.5,3.4-7.9,7.7-12.5,12.4c-13.7,13.6-29.8,29.9-33.1,33.6
		c-0.5,0.6-1.5,1.2-1.5,4.7c0.8-0.5,1.7-0.7,2.7-0.7c3,0,5.4,2.4,5.4,5.5c0,1.3-0.4,2.4-1.2,3.4c10.2,2,30.8,6.3,48.4,10.2
		c4.3,0.9,8.3,1.8,12.1,2.7v0c0-3.6,0.9-7,2.4-10c-3.8-0.5-8.3-1.2-13.1-1.9c-19.3-2.8-43.4-6.1-45.6-6.3c-3.7-0.3-3.4-3.7-2.6-4.9
		c0.5-0.7,18.2-17.9,31.8-31.1c5.1-4.9,9.6-9.3,12.5-12.1c2-2,3.2-3.1,3.2-3.1c14.6,13.1,20.7,36.3,23.2,50c2.4-1.2,5-2,7.7-2.3
		c-4.8-16.5-20-68.9-22.2-74.9c-2.7-7.1,0.2-8.2,1.6-8.2c2.3,0,85.3-6.7,93-6.7c2,0,4.9,8,3.6,10c-2,3-54.7,62.4-70.3,80
		c5.8,0.9,10.9,4.1,14.2,8.7l64-72.9c0,0,3.1-3.7,6.1-3.1c0,0,2.4,5.5,3.9,9.1c2,4.7,4.3,10.3,6.7,16.2
		c8.7,21.3,18.9,46.9,20.9,50.2c0.5,1.5,5.1,1.7,7,0.7C609.7,569.1,609.3,566.6,608.7,565.2z M561.1,463.2c0,0-0.1,0-0.2,0l0.8-0.2
		C561.3,463.1,561.1,463.2,561.1,463.2z"/>
	<path class="st3" d="M453.8,425.6c-11.8-0.1-30.1-0.1-40.6-0.4c-2.5,0-4,3-1.7,4.1c6.1,0.3,10.8-0.1,14.7,4.4
		c1.5,1.8,3.5,1.4,5.7,0.3c0,0,11.3,1,13.9,0.2c0.8-0.2,9.7-6.1,9.7-6.1l-2.6-0.1c4.8,0.2,8.9,0.6,9.6,0.1
		C463.4,427.6,465.6,425.7,453.8,425.6z M445.4,432.5c-2.4,0.7-10.5,0-10.9,0c2.3-1.5,4.6-3.3,6.8-3.8c3.3-0.8,7.6-0.8,11.5-0.6
		C452.8,428,447.9,431.8,445.4,432.5z"/>
	<path class="st7" d="M533.9,452.2c-0.2,0.2-0.3,0.5-0.5,0.7l-58.5,75.4l-0.1,0.1c-2.6,3.7-7.6,5-11.7,2.9
		c-4.6-2.3-6.5-7.9-4.2-12.5c0.2-0.4,0.5-0.9,0.8-1.3l42-63.5l-74.4-12.5l12.1-43.7l87.3,34.3l0,0c1.4,0.4,2.8,1,4.1,2
		C536.7,438.3,538,446.4,533.9,452.2z"/>
	<path class="st3" d="M619.5,443.8c0,0.3-3,7.6-3,7.6c2.7,3.8-0.2,13.1-0.5,18.5c-0.3,5.4,1.2,4.1,1.3,4.8c0.1,0.7-0.3,1.4-0.3,1.4
		s-9.4-8.4-7.3-13.7c5.5-5.1,4-5.3,3.5-9.1c-1.8-0.9-1.6-0.2-1.9-0.2c-0.1,0-0.1-0.1-0.1-0.3c-0.2,0.6-0.2,1.1-0.2,1.8
		c0,0.9-1.2,0.3-4.4,0.9c-3.6,0.7-4.1,4-4.1,4c-0.2-0.1-0.4-0.2-0.5-0.3c0.2,0.1,0.4,0.2,0.5,0.4c2.2,7.1-3.3,14.7-8.9,19.1
		c-3.6,2.8-10.6,4.5-15.9,5.3c-3,0.5-5.5,0.6-6.3,0.6c-2.2-0.2-1.9-6.2-0.1-6.3c0.6,0,2.4-0.2,4.6-0.5c1.8-0.2,3.8-0.6,5.5-0.9
		c16.5-3.8,15.6-13.6,15.4-15c-0.2-1.4-3.4-5-4.4-6.1c-0.8-0.9-3.8-0.1-9.3-1c-0.5-0.1-1-0.1-1.5-0.2c0,0,0,0,0,0
		c-4.7-0.9-5.1-3.1-3.4-4.6c0.2-0.1,0.4-0.3,0.8-0.4c0,0,0,0,0,0c2.8-0.9,12-0.5,12-0.5s9.7,0,13.3-0.4c3.6-0.4,6.2-7.8,7.5-8.1
		c2.3-0.4,3.8-0.1,5.1,0.4C618.8,441.4,619.9,442.5,619.5,443.8z"/>
	<path class="st8" d="M543.3,367.3c-0.3-1.4-0.5-2.6-0.7-3.6C542.9,364.9,543.2,366.1,543.3,367.3z"/>
	<path class="st7" d="M578.1,357.7c0.2,2.1,0.4,5.5-0.2,7.7c-0.3,1.1-4.1-1.1-4.9-1.6c-3.9,3.2-8.9,5.2-14.3,5.2
		c-1.2,0-2.4-0.1-3.6-0.3c-0.8-0.1-1.6-0.3-2.3-0.5c-0.2-0.1-0.5-0.1-0.7-0.2c-0.1,0-0.1,0-0.2,0c-0.1,0-0.2,0-0.2,0c0,0,0,0,0,0
		c-5-0.9-6.9,8.5-6.9,8.9l-1.4-9.7c-0.2-1-1.3-5.9-3.4-9.9c-2.3-4.3-5.9-7.3-6.9-8.2c-2.8-2.3-7-4.3-10.7-5.3
		c1.1,0.2,4.8,0.9,5.8,0.9c3,0,5.6-1.4,7.7-3.2c0.5-0.5,1.1-1,1.5-1.7c0.2-0.4,0.4-0.9,0.5-1.5c0.5-1.1,1-2.2,1.6-3.2
		c0.9-1.5,1.9-2.8,3.1-4c4.1-4.2,6.1-13.4,12.4-13c28,2,26.1,16.2,26.1,28.6C581.1,350.6,580,354.4,578.1,357.7z"/>
	<path class="st9" d="M491.3,613.7c0,1.2-0.8,2.3-1.8,2.9c-0.7,0.4-1.5,0.7-2.3,0.7h-10.4c-2,0-4.2-1.6-4.2-3.6s2.2-3.6,4.2-3.6
		c0,0,3.3,0,2.3,0c-0.2-2.3-0.4-3.2-0.6-6c0-0.1-0.5-7.2-0.7-10.4c0-0.4,0-0.9-0.1-1.3c0-0.1,0-0.2,0-0.3c-0.2-3.6-0.4-6.7-0.4-8.8
		c0-7,9.3-6.4,9,0.2c0,0.8-0.2,4.2-0.4,8.7v0.1c0,0.4,0,0.9-0.1,1.3c-0.2,3.2-0.3,6.8-0.5,10.3c0,0-0.3,3.9-0.4,6.2
		c-0.8,0,2.3,0,2.3,0c0.8,0,1.7,0.3,2.4,0.8C490.6,611.5,491.3,612.5,491.3,613.7z"/>
	<circle class="st6" cx="395" cy="566.3" r="1.8"/>
	<path class="st10" d="M484.5,594.1"/>
	<path class="st6" d="M400.5,566.3c0,1.3-0.4,2.4-1.2,3.4c-1,1.3-2.5,2.1-4.3,2.1c-3,0-5.5-2.4-5.5-5.5c0-2,1.1-3.8,2.7-4.7
		c0.8-0.5,1.7-0.7,2.7-0.7C398,560.8,400.5,563.3,400.5,566.3z"/>
	<circle class="st11" cx="481.8" cy="582.3" r="1.9"/>
	<path class="st8" d="M503.4,578.9c-0.6-3.5-2-6.6-4-9.3c-3.3-4.5-8.4-7.8-14.2-8.7c0,0-0.1,0-0.1,0c0-0.1,0-0.2,0-0.2
		c-0.2-2.4-0.4-4.1-0.5-6h2.2c2,0,4.2-1.6,4.2-3.6s-2.2-3.6-4.2-3.6h-10.4c-0.8,0-1.6,0.3-2.4,0.7c-1.1,0.7-1.8,1.7-1.8,2.9
		c0,1.2,0.7,2.2,1.8,2.9c0.7,0.5,1.6,0.8,2.4,0.8h2.3c-0.1,1.9-0.2,3.6-0.3,6.1c0,0.1,0,0.1,0,0.2c-2.3,0.4-4.5,1.1-6.5,2.1
		c-1.9,1-3.6,2.2-5.1,3.6c-1.8,1.7-3.3,3.7-4.4,5.9c-1.5,3-2.4,6.4-2.4,10v0c0,3.5,0.8,6.9,2.3,9.8c3.6,7.2,11,12.1,19.6,12.1
		c11,0,20.2-8.2,21.7-18.8c0.2-1,0.2-2.1,0.2-3.1C503.7,581.3,503.6,580,503.4,578.9z M491.8,586.5c-1.6,4-5.5,6.8-10,6.8
		c-5.9,0-10.8-4.8-10.8-10.8c0-4.5,2.8-8.4,6.8-10c-0.2,4.5-0.4,7.9-0.4,8.7c-0.3,6.6,9,7.2,9,0.2c0-2.2-0.2-5.3-0.4-8.9
		c2.6,1.1,4.7,3.2,5.7,5.7c0.5,1.3,0.9,2.7,0.9,4.2C492.5,583.9,492.3,585.2,491.8,586.5z"/>
	<path class="st8" d="M485.9,572.3l-0.7-10.2c0.2,3,0.4,6,0.6,8.9C485.9,571.4,485.9,571.9,485.9,572.3z"/>
	<path class="st8" d="M499.5,496.5l-24.6,31.8l-0.1,0.1c-2.6,3.7-7.6,5-11.7,2.9c-4.6-2.3-6.5-7.9-4.2-12.5c0.2-0.4,0.5-0.9,0.8-1.3
		l21.1-31.9L499.5,496.5z"/>
	<path class="st12" d="M480.7,520.7c0,0,8.8,16.2,14.2,19.5s10.4,5.4,9.6,8.9c-0.8,3.4-11.5,7.1-22.6,0.8s-9.2-8.4-20.4-14.2
		c-11.2-5.9-11-8.4-9.7-11.9s7.2-9.9,9.3-7.9c1.2,1.1-1.4,6,2.3,8.5C466,526,472.5,529.9,480.7,520.7z"/>
	<circle class="st13" cx="480.7" cy="538.4" r="1.7"/>
	<circle class="st13" cx="471.7" cy="531.9" r="1.7"/>
	<path class="st7" d="M619.1,456.2c-0.6,0.6-1.6,0.7-2.3,0.1l-2.6-3.1c0,0-2.8-1.9-4.6-2.7c0.3,0.2,4.5,3.5,4.5,3.5
		c0,0,3.1,4.9,3.1,4.9c0.5,0.7,0.3,1.7-0.5,2.2c-0.7,0.5-1.7,0.3-2.2-0.4l-2.6-4c0,0-5.1-3.7-4.3-3c0.9,0.9,4.3,4.3,4.3,4.3
		c0.6,0.7,0.5,1.7-0.2,2.2c-0.7,0.6-1.7,0.5-2.2-0.2c0,0-1.8-1.9-3-3.3c-0.1-0.1,2.2,3,2.2,3c0.6,0.7,0.5,1.7-0.2,2.2
		c-0.7,0.6-1.7,0.5-2.2-0.2l-3-3.3c-0.7,0.2-1.5,0.3-2.2,0.3c-0.5,0-1.7-0.3-3-0.8c0,0,0,0,0,0c-0.7-0.1-1.3-0.3-1.9-0.6l-54.6-23.3
		l-0.5-0.2c-2.5-1.1-4.1-3.3-4.7-5.7l-19.7-58.2l26.1-6.5l9.3,57.1l47.4,22.6c2.6,0.9,8.1,3.1,8.5,3.4l5.3,2.1c0,0,1.6,0.6,1.8,0.8
		l4,4.2C619.6,454.5,619.7,455.5,619.1,456.2z"/>
	<path class="st8" d="M427.3,441.5c1.5,0.4,3.1,0.7,4.7,0.8L427.3,441.5z"/>
	<path class="st8" d="M542.6,363.7c0-0.1,0-0.1,0-0.2h0C542.5,363.5,542.6,363.6,542.6,363.7z"/>
	<path class="st8" d="M550,336.2l33.6,14.4l-5.5,7.2c0,0-3.7-4-9-11.3C566.6,342.7,550,336.2,550,336.2z"/>
	<path class="st8" d="M546.3,334.9l5.2,17.6l11-13.5l2.5,1.8c0,0-13.3,13.9-13.4,16.6c-0.1,2.7,0.3,12.2,0.3,12.2l-2.7,0.4
		c0,0,0.8-11.1,0.1-13.9c-0.7-2.8-5.7-20.9-5.7-20.9L546.3,334.9z"/>
	<g>
		<path class="st8" d="M574.7,319.3c-12.3-6.8-25.7-7.6-25.7-7.6l0.8,3.4l-8.8,1.2l0.8,5.3l-4.6,2.6c0,0-1.8,10.2,2,11
			c3.7,0.8,13.9,0.5,17.2-1.4c0,0,2.8,5.9,7.2,7c4.4,1.1,3.3,0,6,0.9c2.7,0.9,11.2,6.4,14.2,5.1C587.4,345.4,587,326.1,574.7,319.3z
			 M549.7,321.1c7,1.5,19.7,7.8,22.4,15.3L549.7,321.1z M572.7,326.4c2.7,1.1,7.4,7.2,7.4,10L572.7,326.4z"/>
	</g>
	<path class="st5" d="M556.7,342.3c-0.1-3.3-4.1-6.3-6.2-0.6c-2.2,6.1,0.1,9.5,3,7.4"/>
	<line class="st5" x1="567.8" y1="366.9" x2="565.1" y2="365.2"/>
	<g>
		<g>
			<path class="st14" d="M481.9,544.5c19.1,0,34.9,14,37.7,32.4"/>
			<g>
				<polygon class="st15" points="515.4,576.1 520,582.6 523.3,575.4 				"/>
			</g>
		</g>
	</g>
	<path class="st8" d="M548.2,397.5l-20.4,5.8l-2.4-6.2c-0.4,0.1-0.8,0.3-1.2,0.4c-1.5,0.5-4.3,1.4-4.3,1.4l-39,12.6l-3,1l21.6,8.9
		L483.2,451l-51.2-8.6l-4.7-0.8c-9.3-2.6-15.6-10.6-16.5-19.7v0c0,0,0-0.1,0-0.1c-3.6-18.9,3.4-34.9,17.9-46.7l0,0
		c4.6-3.8,10.1-7.1,16.2-10c2.3-1.1,60.7-20.2,62.1-20.7c14.7-4.8,30.5,3.3,35.2,18c0.1,0.4,0.2,0.8,0.3,1.2c0,0.1,0,0.1,0,0.2
		c0.2,1,0.5,2.2,0.7,3.6c0,0,0,0.1,0,0.1C545.3,377.9,548.2,397.5,548.2,397.5z"/>
	<line class="st5" x1="525.2" y1="397.1" x2="514.6" y2="369.2"/>
	<line class="st5" x1="428.3" y1="374.9" x2="480.6" y2="411.5"/>
</g>
<g id="grupo-musculo">
	<g id="musculo-texto">
		<text transform="matrix(1 0 0 1 292.542 435.9497)" class="st16 st17 st18">Glúteos</text>
	</g>
	<path id="musculo" class="st15" d="M419.7,383.2c-6.3,7.4-15,24.5-8,45c6.7,15.7,17.3,13.8,25.4,15.4c10.4,2.1,20.7,3.5,20.7,3.5
		s-18.8-39-17-45.6C442.6,395.5,424.8,378.7,419.7,383.2z"/>
	<g id="texto-1">
	<g>
		<circle class="st19" cx="443.4" cy="669.9" r="17.3"/>
		<text transform="matrix(1 0 0 1 439.869 677.7723)" class="st20 st21 st22">1</text>
	</g>
	<text transform="matrix(1 0 0 1 473.9681 680.9891)" class="st16 st17 st18">Empuje</text>
</g>
</g>

<text id="descripcion" transform="matrix(1 0 0 1 288.5583 725.0557)" class="st16 st17 st23">Empuje inicial, para tomar equilibrio y pedalear.</text>
</svg>
